<svg width="25" height="23" viewBox="0 0 25 23" fill="none" xmlns="http://www.w3.org/2000/svg">
<path d="M25 5.96875V20.0312C25 21.3252 23.9502 22.375 22.6562 22.375H2.34375C1.0498 22.375 0 21.3252 0 20.0312V5.96875C0 4.6748 1.0498 3.625 2.34375 3.625H6.64062L7.24121 2.01855C7.58301 1.10547 8.45703 0.5 9.43359 0.5H15.5615C16.5381 0.5 17.4121 1.10547 17.7539 2.01855L18.3594 3.625H22.6562C23.9502 3.625 25 4.6748 25 5.96875ZM18.3594 13C18.3594 9.76758 15.7324 7.14062 12.5 7.14062C9.26758 7.14062 6.64062 9.76758 6.64062 13C6.64062 16.2324 9.26758 18.8594 12.5 18.8594C15.7324 18.8594 18.3594 16.2324 18.3594 13ZM16.7969 13C16.7969 15.3682 14.8682 17.2969 12.5 17.2969C10.1318 17.2969 8.20312 15.3682 8.20312 13C8.20312 10.6318 10.1318 8.70312 12.5 8.70312C14.8682 8.70312 16.7969 10.6318 16.7969 13Z" fill="url(#paint0_linear_138_634)"/>
<defs>
<linearGradient id="paint0_linear_138_634" x1="-1.08033e-08" y1="14.5" x2="25" y2="15" gradientUnits="userSpaceOnUse">
<stop stop-color="#C98FEC"/>
<stop offset="1" stop-color="#A89BFF"/>
</linearGradient>
</defs>
</svg>
